<svg width="317" height="306" viewBox="0 0 317 306" fill="none" xmlns="http://www.w3.org/2000/svg">
<path fill-rule="evenodd" clip-rule="evenodd" d="M102.52 0.408527C106.453 1.56675 111.762 4.86538 112.753 6.7663C112.98 7.20235 113.387 7.55877 113.656 7.55877C113.925 7.55877 116.375 10.2341 119.101 13.5035C122.363 17.4173 123.954 19.7655 123.759 20.3782C123.596 20.8895 123.646 21.1719 123.869 21.0058C124.477 20.553 125.102 21.2646 126.81 24.3536C127.661 25.8931 128.475 27.2927 128.617 27.4638C128.915 27.8202 129.983 30.0352 131.166 32.7504C131.612 33.7768 132.1 34.7565 132.249 34.9275C132.765 35.5209 137.657 47.9485 139.472 53.278C139.705 53.9623 140.338 55.7817 140.878 57.3213C144.333 67.1637 147.841 82.5378 149.606 95.5762C151.27 107.864 151.417 110.385 151.242 123.568C151.074 136.199 150.962 137.588 149.788 141.606L148.516 145.961L148.201 138.185C147.827 128.924 146.8 115.856 146.343 114.548C146.164 114.035 145.613 111.096 145.118 108.017C143.194 96.0489 140.53 83.9174 138.697 78.7813C138.33 77.755 137.872 76.0089 137.678 74.9005C137.484 73.7926 137.11 72.7265 136.848 72.5312C136.585 72.3365 136.363 71.7032 136.353 71.1247C136.344 70.5463 135.887 68.9532 135.337 67.5848C134.788 66.2163 134.331 64.8715 134.321 64.5959C134.251 62.6004 124.953 40.3952 121.637 34.3061C120.799 32.7666 119.876 31.0541 119.585 30.5005C118.244 27.9415 116.887 25.7569 115.575 24.0426C114.789 23.0162 114.26 21.812 114.4 21.3666C114.539 20.9212 114.441 20.7147 114.182 20.9069C113.923 21.0998 111.775 18.8723 109.408 15.9568C107.041 13.042 104.1 9.78813 102.872 8.72695C99.2359 5.58445 98.1273 4.10028 98.1273 2.37788C98.1273 0.0863141 99.4364 -0.500261 102.52 0.408527ZM185.124 14.5896C186.471 16.2784 186.798 16.3978 189.158 16.0619L191.727 15.6956L190.665 17.7651C189.339 20.3459 189.336 21.2522 190.642 23.9163L191.683 26.0387L189.05 25.7345C186.617 25.4527 186.307 25.5759 184.956 27.3562L183.494 29.2832L182.907 26.3516C182.399 23.8156 182.037 23.2563 180.221 22.1995C178.277 21.0687 178.202 20.9356 179.21 20.3938C179.809 20.0722 180.299 19.5721 180.299 19.2822C180.299 18.9923 180.76 18.7553 181.323 18.7553C182.019 18.7553 182.447 18.2079 182.66 17.0447C183.476 12.5954 183.509 12.5624 185.124 14.5896ZM251.274 20.2638C251.463 20.8584 251.618 21.8966 251.618 22.5702C251.618 23.3907 252.258 24.1297 253.556 24.8089C254.939 25.5317 255.235 25.8925 254.59 26.0667C254.092 26.201 253.686 26.5705 253.686 26.8871C253.686 27.2044 253.337 27.4638 252.91 27.4638C252.351 27.4638 252.135 28.1548 252.135 29.9519C252.135 32.756 251.705 33.0297 250.279 31.1325C249.467 30.0527 248.91 29.8884 247.084 30.1901C245.024 30.5298 244.908 30.4732 245.403 29.361C246.169 27.6386 246.055 25.2108 245.158 24.1315C243.994 22.7295 244.187 22.4875 246.475 22.4875C248.099 22.4875 248.832 22.1174 249.748 20.8354C250.792 19.3743 250.969 19.3077 251.274 20.2638ZM256.954 46.9974C257.107 47.477 256.958 48.3043 256.622 48.8349C255.974 49.8594 240.828 59.1874 239.813 59.1874C239.484 59.1874 239.215 59.4225 239.215 59.7099C239.215 59.9972 238.285 60.6018 237.148 61.0534C236.011 61.505 235.081 62.1096 235.081 62.397C235.081 62.6844 234.863 62.9195 234.597 62.9195C233.909 62.9195 231.977 63.9869 230.171 65.3654C229.318 66.016 227.167 67.4684 225.391 68.5931C223.614 69.7183 222.161 70.861 222.161 71.1335C222.161 71.4053 221.923 71.628 221.633 71.628C221.025 71.628 216.9 74.7587 216.399 75.6003C216.214 75.91 215.64 75.9679 215.122 75.729C214.605 75.4902 214.35 75.4964 214.555 75.7433C215.04 76.3268 213.427 78.4703 212.504 78.4703C212.112 78.4703 211.658 78.8902 211.495 79.4034C211.331 79.9165 211.01 80.3364 210.782 80.3364C210.108 80.3364 206.14 83.6213 206.14 84.1793C206.14 84.4605 205.903 84.6906 205.615 84.6906C205.193 84.6906 200.786 88.6704 196.755 92.6918C189.346 100.082 180.244 110.139 175.704 115.948C174.053 118.062 172.266 119.362 173.568 117.503C174.618 116.004 176.682 112 176.682 111.462C176.682 111.164 176.856 110.826 177.069 110.712C177.283 110.598 178.155 109.266 179.007 107.752C179.86 106.239 181.139 104.14 181.85 103.087C184.069 99.801 198.517 82.6093 201.23 80.026C202.651 78.6725 204.069 77.1665 204.381 76.6789C204.694 76.1912 205.223 75.9959 205.557 76.2447C205.892 76.4929 206.101 76.4388 206.023 76.124C205.857 75.4528 213.343 68.5178 214.234 68.5178C214.567 68.5178 214.917 68.3076 215.012 68.0513C215.213 67.507 218.864 64.1636 219.258 64.1636C219.404 64.1636 220.525 63.355 221.747 62.3659C225.906 59.0026 237.3 51.8791 240.249 50.7999C240.959 50.5392 241.773 50.1132 242.058 49.8525C242.342 49.5919 243.388 49.1739 244.383 48.9238C245.378 48.6738 246.425 48.2632 246.709 48.0113C247.416 47.3856 252.963 46.1247 255.009 46.1247C255.963 46.1247 256.795 46.4979 256.954 46.9974ZM99.2901 47.1753C99.7873 47.3321 100.195 47.6848 100.195 47.9591C100.195 48.2334 101.353 49.4028 102.768 50.5573C104.183 51.7118 105.242 52.9919 105.12 53.4018C104.998 53.8124 105.19 54.0127 105.547 53.8485C105.903 53.6836 108.428 56.4268 111.157 59.945C117.733 68.4214 120.51 72.6798 120.048 73.5787C119.819 74.0247 119.897 74.1422 120.248 73.8816C120.57 73.6409 121.221 74.2113 121.736 75.1847C122.239 76.1365 122.947 77.1392 123.309 77.4129C123.671 77.6866 123.968 78.3248 123.968 78.8317C123.968 79.3387 124.316 79.9147 124.743 80.1112C125.169 80.3084 125.518 80.7252 125.518 81.0381C125.518 81.6172 128.084 86.6115 128.674 87.1787C128.851 87.3498 129.159 88.118 129.358 88.8856C129.557 89.6532 129.999 90.6329 130.341 91.0627C130.873 91.7333 134.539 100.503 135.867 104.285C136.107 104.969 136.784 106.894 137.371 108.562C138.646 112.188 138.799 114.43 137.589 111.749C136.222 108.721 135.335 106.877 134.404 105.129C133.922 104.225 132.73 101.846 131.754 99.842C130.778 97.8379 129.847 96.0582 129.686 95.8872C129.524 95.7161 129.08 94.8447 128.697 93.9502C128.315 93.0557 127.469 91.6319 126.817 90.7847C126.165 89.9381 125.27 88.4303 124.83 87.4344C124.389 86.4385 123.443 84.7839 122.728 83.7576C122.013 82.7312 121.011 81.2477 120.501 80.4608C117.892 76.4307 114.438 71.3885 113.502 70.2452C113.005 69.6375 112.688 69.1398 112.799 69.1398C112.91 69.1398 111.967 67.8784 110.704 66.3357C109.376 64.7141 108.562 63.2312 108.773 62.8188C108.998 62.3821 108.911 62.2751 108.552 62.5426C107.73 63.154 96.0601 48.9002 96.0601 47.2848C96.0601 46.7299 97.6979 46.6746 99.2901 47.1753ZM51.976 61.0956C51.501 64.4116 51.5356 64.5889 52.9821 66.2908C53.8059 67.2605 54.6334 68.5351 54.8215 69.1242C55.1181 70.0541 54.8023 70.1947 52.4168 70.1947C50.4126 70.1947 49.4395 70.5019 48.8152 71.3324C48.3449 71.9581 47.9598 72.6834 47.9598 72.9447C47.9598 73.2059 47.4948 74.1315 46.9263 75.0011C46.3309 75.9117 45.8916 76.2172 45.8895 75.7214C45.888 75.2474 45.6446 73.8105 45.3484 72.5273C44.8311 70.2842 44.7236 70.1947 42.5396 70.1947C39.9137 70.1947 39.3033 69.4986 40.5907 67.9734C42.8807 65.2595 43.2146 64.0676 42.4409 61.3662C42.043 59.9747 41.7845 58.605 41.8667 58.322C41.9494 58.0389 43.0305 58.3555 44.2693 59.0248C46.951 60.4736 47.8632 60.5389 48.9526 59.3576C49.4017 58.8712 50.3759 58.2908 51.118 58.0675L52.4674 57.6626L51.976 61.0956ZM51.8733 114.964C59.4073 115.321 81.2175 119.258 83.9152 120.747C84.4837 121.061 85.7627 121.507 86.7576 121.737C87.7524 121.968 88.8083 122.389 89.1034 122.674C89.399 122.959 90.5618 123.467 91.6874 123.804C94.2839 124.581 98.8219 126.558 99.1609 127.06C99.3031 127.271 99.9506 127.642 100.6 127.887C102.187 128.483 107.606 131.582 110.789 133.714C115.821 137.083 116.732 137.879 116.481 138.684C116.339 139.139 116.465 139.317 116.769 139.092C117.702 138.397 121.584 142.003 128.851 150.315C131.066 152.85 134.146 157.468 133.619 157.468C133.221 157.468 129.529 154.856 128.812 154.066C128.491 153.714 127.793 153.08 127.261 152.659C126.729 152.238 125.444 151.215 124.405 150.386C120.417 147.203 113.577 142.547 112.341 142.173C111.629 141.959 111.047 141.533 111.047 141.228C111.047 140.923 110.791 140.673 110.476 140.673C110.163 140.673 108.748 139.974 107.333 139.118C105.919 138.263 104.315 137.563 103.77 137.563C103.225 137.563 102.779 137.329 102.779 137.044C102.779 136.758 101.557 136.092 100.065 135.564C90.5463 132.198 88.1887 131.407 84.9488 130.494C82.9591 129.935 79.7032 129.212 77.7135 128.889C75.7238 128.566 72.7005 128.014 70.995 127.663C64.3634 126.298 51.3926 125.567 27.2744 125.197C0.148285 124.781 0.451141 124.823 0.451141 121.456C0.451141 120.228 0.880066 119.537 2.13074 118.747C4.0083 117.562 12.0028 115.933 19.8313 115.141C24.5854 114.66 43.2922 114.556 51.8733 114.964ZM260.354 122.577C261.817 124.111 262.932 124.22 264.311 122.965C264.862 122.463 265.488 122.043 265.701 122.032C266.28 122.003 266.17 124.367 265.572 124.812C264.933 125.287 264.884 127.611 265.513 127.611C265.764 127.611 266.341 128.293 266.795 129.126C267.56 130.532 267.555 130.636 266.725 130.568C264.701 130.4 262.999 131.385 262.682 132.907C262.265 134.905 261.783 134.861 260.896 132.743C260.502 131.802 260.131 130.936 260.072 130.819C260.013 130.702 259.075 130.238 257.988 129.788L256.011 128.97L257.408 128.204C258.613 127.543 258.826 127.016 258.959 124.357L259.112 121.277L260.354 122.577ZM256.915 142.279C257.096 142.497 259.99 143.047 263.346 143.501C270.549 144.475 278.845 146.14 280.301 146.902C280.87 147.2 282.149 147.631 283.144 147.86C285.855 148.485 291.486 150.622 293.042 151.616C293.797 152.098 294.664 152.492 294.969 152.492C295.275 152.492 297.332 153.503 299.541 154.738C306.987 158.902 313.945 164.448 313.299 165.705C313.112 166.07 313.18 166.204 313.451 166.003C314.112 165.511 314.754 166.105 316.132 168.478C317.239 170.387 317.249 170.522 316.379 171.744C315.188 173.42 312.269 173.418 309.085 171.741C307.75 171.038 306.193 170.224 305.625 169.931C305.056 169.638 303.544 168.841 302.265 168.16C300.986 167.48 299.009 166.578 297.873 166.157C296.736 165.737 295.573 165.209 295.288 164.985C295.004 164.761 293.027 163.919 290.896 163.115C288.764 162.311 286.206 161.281 285.211 160.827C284.216 160.372 282.294 159.818 280.941 159.596C279.587 159.373 278.363 158.963 278.219 158.684C278.076 158.406 276.626 157.98 274.996 157.739C273.366 157.499 271.477 157.051 270.799 156.746C270.121 156.441 266.748 155.755 263.305 155.223C259.862 154.692 255.184 153.963 252.91 153.605C247.543 152.758 209.948 152.8 203.556 153.66C200.855 154.023 194.506 154.739 189.446 155.251C184.386 155.763 178.921 156.45 177.301 156.778C175.681 157.106 171.914 157.53 168.93 157.721C163.707 158.054 163.581 158.032 165.57 157.144C166.707 156.637 168.103 155.96 168.671 155.64C169.24 155.32 170.286 154.879 170.997 154.659C171.707 154.439 172.987 153.893 173.839 153.447C174.692 153 176.494 152.446 177.845 152.215C179.195 151.983 180.299 151.531 180.299 151.21C180.299 150.888 180.822 150.621 181.462 150.615C182.102 150.609 184.253 150.162 186.243 149.622C192.601 147.895 197.006 146.848 200.455 146.243C202.302 145.919 205.907 145.221 208.465 144.691C211.023 144.162 215.675 143.427 218.801 143.059C225.197 142.306 256.407 141.668 256.915 142.279ZM204.621 159.581C204.764 159.753 208.682 160.348 213.326 160.902C217.97 161.457 222.265 162.137 222.87 162.412C223.475 162.687 225.248 163.114 226.812 163.36C229.608 163.801 231.252 164.307 238.44 166.94C249.516 170.996 251.826 175.649 241.282 172.664C239.435 172.141 236.644 171.358 235.081 170.925C233.517 170.491 231.889 169.96 231.463 169.745C230.563 169.29 223.305 167.554 218.801 166.717C217.096 166.399 214.654 165.864 213.375 165.526C209.997 164.634 199.673 163.142 191.927 162.426C188.232 162.085 183.465 161.614 181.333 161.381L177.457 160.957L180.299 160.399C183.445 159.782 204.208 159.083 204.621 159.581ZM137.632 173.932C137.081 174.435 136.28 174.864 135.854 174.886C135.428 174.909 134.149 175.468 133.012 176.129C131.875 176.79 130.582 177.34 130.139 177.352C129.696 177.364 128.882 177.784 128.33 178.286C127.779 178.789 126.978 179.21 126.552 179.223C126.125 179.236 125.094 179.675 124.26 180.198C123.426 180.722 122.387 180.985 121.95 180.784C121.514 180.582 121.317 180.612 121.514 180.848C121.711 181.085 120.89 181.822 119.689 182.486C113.489 185.916 104.548 191.345 104.267 191.849C104.091 192.165 103.358 192.466 102.637 192.518C101.917 192.57 101.435 192.823 101.567 193.08C101.698 193.336 101.443 193.546 101 193.546C100.557 193.546 100.195 193.756 100.194 194.013C100.194 194.269 99.0891 195.256 97.7392 196.206C94.8673 198.226 94.5717 198.448 89.1091 202.674C86.8206 204.445 84.5415 206.334 84.0444 206.873C83.5472 207.412 82.9989 207.853 82.8268 207.853C82.6547 207.853 81.8733 208.482 81.0898 209.252C80.3068 210.022 79.1409 211.072 78.499 211.585C75.9315 213.637 69.4338 219.804 69.2725 220.343C69.1774 220.657 68.8224 220.915 68.4829 220.915C68.1433 220.915 67.5102 221.406 67.0756 222.004C66.6415 222.602 65.6327 223.652 64.8342 224.337C62.8352 226.049 61.1701 227.71 59.0672 230.09C58.0847 231.203 57.1689 232.112 57.032 232.112C56.8951 232.112 56.3586 232.602 55.8403 233.201C55.3214 233.799 53.8929 235.269 52.665 236.466C50.344 238.73 46.8675 242.318 45.4339 243.931C44.9775 244.444 43.6814 245.695 42.5537 246.711C41.426 247.727 40.0384 249.083 39.4699 249.725C37.3505 252.119 32.1665 256.29 30.7969 256.704C29.9297 256.966 29.0801 256.834 28.6103 256.364C27.7643 255.519 27.5343 253.581 28.3529 254.19C28.6424 254.406 28.7338 254.164 28.5643 253.631C28.0599 252.049 36.58 239.705 37.6338 240.489C37.8689 240.664 38.0291 240.32 37.9903 239.725C37.9464 239.051 38.2585 238.676 38.8182 238.729C39.3128 238.775 39.5743 238.536 39.3997 238.195C39.0141 237.444 44.3222 231.374 44.9543 231.844C45.2003 232.027 45.2695 231.764 45.1088 231.259C44.9367 230.72 45.2426 230.067 45.8494 229.675C46.4179 229.31 47.192 228.652 47.5693 228.216C47.9466 227.778 49.4185 226.322 50.8397 224.978C52.2609 223.634 53.6562 222.232 53.9405 221.863C54.2247 221.494 55.9689 219.8 57.8165 218.099C59.6641 216.398 61.292 214.848 61.4342 214.655C62.1711 213.654 69.7676 207.231 70.2147 207.231C70.502 207.231 70.7366 206.985 70.7366 206.684C70.7366 206.384 71.4343 205.789 72.2871 205.365C73.1398 204.94 73.8375 204.337 73.8375 204.025C73.8375 203.714 74.2447 203.276 74.7419 203.051C75.239 202.827 76.7486 201.716 78.0959 200.582C79.4433 199.449 80.7637 198.522 81.0304 198.522C81.2975 198.522 81.8454 198.125 82.2485 197.641C83.6108 196.001 101.399 184.838 102.649 184.838C103.004 184.838 103.295 184.558 103.295 184.216C103.295 183.873 103.711 183.594 104.22 183.594C104.728 183.594 106.056 183.034 107.171 182.349C108.287 181.665 109.405 181.105 109.657 181.105C109.909 181.105 110.849 180.715 111.745 180.24C113.878 179.104 118.017 177.454 120.608 176.705C121.745 176.376 123.141 175.848 123.709 175.531C124.922 174.856 134.644 173.019 137.007 173.019C138.55 173.019 138.583 173.067 137.632 173.932ZM268.673 177.026C268.673 177.559 268.887 177.995 269.149 177.995C269.411 177.995 269.778 178.837 269.966 179.866C270.358 182.014 271.542 182.972 273.807 182.972C275.857 182.972 275.811 183.767 273.648 185.753C272.117 187.158 271.862 187.808 271.554 191.087L271.203 194.82L268.943 192.591C266.751 190.43 266.605 190.38 264.061 190.937C262.618 191.252 261.438 191.376 261.438 191.213C261.438 191.05 261.943 189.835 262.56 188.514C263.677 186.12 263.678 186.103 262.689 183.764C262.143 182.473 261.464 181.186 261.179 180.906C260.895 180.625 261.776 180.573 263.136 180.791C265.31 181.14 265.73 181.014 266.607 179.748C267.156 178.954 267.613 177.973 267.622 177.565C267.648 176.44 268.673 175.913 268.673 177.026ZM154.459 178.191C156.022 178.905 157.609 179.854 157.984 180.298C158.36 180.742 159 181.105 159.405 181.105C159.812 181.105 160.144 181.367 160.144 181.686C160.144 182.005 160.613 182.445 161.185 182.664C161.758 182.882 162.071 183.364 161.88 183.735C161.67 184.144 161.777 184.227 162.153 183.947C162.695 183.544 164.201 184.775 168.516 189.146C168.998 189.635 169.253 190.309 169.082 190.643C168.91 190.977 169.001 191.078 169.284 190.868C169.838 190.456 177.229 199.351 180.555 204.432C181.674 206.142 182.727 207.682 182.895 207.853C183.474 208.444 192.532 223.72 193.214 225.257C193.591 226.105 194.225 227.191 194.623 227.669C195.021 228.148 195.219 228.938 195.064 229.425C194.909 229.912 194.979 230.164 195.219 229.985C195.46 229.806 196.091 230.632 196.623 231.819C197.154 233.006 197.746 233.978 197.938 233.978C198.13 233.978 198.542 234.748 198.853 235.689C199.165 236.629 199.991 238.519 200.689 239.887C201.387 241.256 202.606 243.915 203.398 245.797C204.189 247.678 204.956 249.358 205.101 249.529C205.246 249.7 205.864 251.099 206.473 252.639C208.273 257.182 212.384 267.777 212.87 269.123C213.116 269.807 213.779 271.636 214.342 273.188C214.906 274.739 215.526 276.771 215.72 277.703C215.914 278.636 216.28 279.552 216.533 279.74C216.786 279.928 216.993 280.513 216.993 281.04C216.993 281.567 217.32 282.88 217.721 283.958C219.357 288.359 220.688 294.785 220.974 299.662C221.274 304.786 221.265 304.84 219.925 305.575C218.851 306.164 218.403 306.146 217.743 305.487C216.881 304.626 213.076 295.267 212.537 292.681C212.368 291.869 212.051 291.205 211.833 291.205C211.615 291.205 211.309 290.435 211.153 289.494C210.9 287.972 209.123 282.965 206.108 275.275C205.557 273.869 205.106 272.4 205.106 272.009C205.106 271.619 204.873 271.3 204.589 271.3C204.305 271.3 204.072 270.897 204.072 270.404C204.072 269.912 203.026 266.831 201.747 263.558C200.468 260.285 199.421 257.329 199.421 256.989C199.421 256.649 199.189 256.371 198.904 256.371C198.62 256.371 198.388 256.022 198.388 255.594C198.388 255.166 197.696 253.277 196.85 251.395C196.004 249.513 194.568 246.154 193.658 243.931C192.748 241.707 191.852 239.747 191.668 239.576C191.484 239.405 190.662 237.656 189.843 235.689C189.023 233.721 188.141 232.112 187.883 232.112C187.625 232.112 187.542 231.524 187.698 230.806C187.854 230.089 187.85 229.659 187.689 229.852C187.402 230.198 185.467 227.607 185.467 226.876C185.467 226.67 184.653 225.107 183.659 223.404C182.664 221.7 181.85 220.194 181.85 220.058C181.85 219.628 176.293 209.459 175.434 208.319C174.983 207.721 174.615 207.053 174.615 206.835C174.615 206.42 167.756 196.007 165.07 192.343C162.058 188.235 155.865 181.39 152.281 178.208C150.325 176.471 150.693 176.468 154.459 178.191ZM132.396 184.09C129.629 185.866 125.815 188.753 125.094 189.618C124.718 190.068 124.211 190.436 123.968 190.436C123.724 190.436 123.217 190.786 122.841 191.213C122.466 191.641 121.112 192.828 119.833 193.85C115.114 197.623 108.763 203.432 105.885 206.609C105.419 207.122 103.774 208.795 102.229 210.326C100.684 211.857 96.2084 216.896 92.2838 221.523C85.6336 229.363 83.14 231.538 83.14 229.501C83.14 228.653 85.3751 224.384 86.5995 222.893C86.9705 222.441 87.2744 221.781 87.2744 221.427C87.2744 221.072 87.6351 220.949 88.0765 221.153C88.5556 221.374 88.7457 221.264 88.5483 220.881C88.0972 220.002 95.4219 211.421 96.1568 211.968C96.5056 212.228 96.5929 212.119 96.3759 211.696C95.9821 210.93 97.3454 209.288 101.763 205.208C103.337 203.754 104.965 202.21 105.381 201.776C107.55 199.515 108.661 198.522 109.023 198.522C109.243 198.522 109.731 198.154 110.106 197.704C110.482 197.254 111.952 196.078 113.373 195.091C114.794 194.103 116.073 193.121 116.216 192.908C116.358 192.696 116.823 192.339 117.249 192.114C117.675 191.89 118.955 191.004 120.092 190.145C122.91 188.016 124.538 187.217 125.323 187.58C125.713 187.761 125.875 187.548 125.719 187.06C125.555 186.545 125.995 186.072 126.891 185.802C127.679 185.564 129.308 184.83 130.51 184.17C133.2 182.695 134.665 182.633 132.396 184.09ZM74.9837 248.682C74.7791 249.972 75.0845 250.702 76.4168 252.102L78.1099 253.881L76.484 254.272C75.2845 254.561 74.7729 255.092 74.5346 256.295C74.0029 258.98 73.7217 259.144 72.5858 257.429C71.8814 256.366 70.9139 255.738 69.8271 255.638C67.9785 255.469 67.7625 255.047 68.9278 253.883C69.8157 252.996 69.9305 251.202 69.2033 249.567C68.749 248.546 68.9061 248.47 70.903 248.741C72.5191 248.96 73.286 248.774 73.792 248.04C74.807 246.567 75.2793 246.822 74.9837 248.682ZM175.868 264.77C177.29 266.737 177.528 266.84 179.873 266.506C181.245 266.311 182.367 266.331 182.367 266.55C182.367 266.77 181.921 267.952 181.375 269.177C180.582 270.958 180.488 271.768 180.909 273.22C181.198 274.218 181.645 275.19 181.9 275.381C182.157 275.571 182.367 276.097 182.367 276.549C182.367 277.199 181.869 277.242 179.975 276.755C177.625 276.152 177.554 276.181 175.924 278.386C173.776 281.292 173.064 281.244 173.064 278.193C173.064 274.953 172.639 273.788 171.458 273.788C170.92 273.788 170.48 273.539 170.48 273.233C170.48 272.928 169.84 272.485 169.059 272.247L167.638 271.816L169.629 270.647C172.695 268.849 173.064 268.276 173.064 265.315C173.064 262.007 173.77 261.869 175.868 264.77Z" fill="#2057CC"/>
<path d="M50.5766 171.238C49.2443 169.838 48.9389 169.108 49.1435 167.818C49.4391 165.958 48.9668 165.703 47.9518 167.176C47.4458 167.91 46.6789 168.096 45.0628 167.877C43.0659 167.605 42.9088 167.682 43.3631 168.703C44.0902 170.338 43.9755 172.132 43.0876 173.019C41.9222 174.183 42.1383 174.605 43.9869 174.774C45.0737 174.874 46.0412 175.502 46.7456 176.565C47.8815 178.28 48.1627 178.116 48.6945 175.431C48.9327 174.228 49.4443 173.697 50.6438 173.408L52.2697 173.017L50.5766 171.238Z" fill="#2057CC"/>
<path fill-rule="evenodd" clip-rule="evenodd" d="M218.264 169.599C218.868 170.956 219.534 171.337 220.627 170.953C221.065 170.799 221.532 170.717 221.666 170.771C222.028 170.915 221.5 172.34 221.046 172.446C220.56 172.558 220.078 173.975 220.465 174.152C220.62 174.223 220.843 174.806 220.961 175.447C221.159 176.528 221.135 176.591 220.637 176.315C219.423 175.641 218.182 175.767 217.691 176.616C217.045 177.728 216.757 177.565 216.622 176.011C216.562 175.321 216.502 174.683 216.489 174.594C216.475 174.506 215.987 173.955 215.404 173.372L214.345 172.311L215.355 172.233C216.226 172.166 216.46 171.901 217.058 170.301L217.752 168.448L218.264 169.599ZM212.315 180.761C212.384 180.946 214.061 182.1 216.041 183.326C220.29 185.956 225.079 189.319 225.828 190.199C226.12 190.543 226.825 191.168 227.393 191.59C228.943 192.739 231.998 195.642 232.763 196.693C233.135 197.202 233.593 197.689 233.781 197.775C233.969 197.862 235.04 199.064 236.161 200.447C239.941 205.11 243.15 210.486 242.508 211.078C242.322 211.25 242.337 211.351 242.543 211.304C243.046 211.187 243.327 211.734 243.714 213.584C244.025 215.071 244.006 215.157 243.232 215.664C242.172 216.36 240.374 215.537 238.737 213.606C238.052 212.797 237.25 211.857 236.957 211.516C236.663 211.176 235.887 210.259 235.231 209.479C234.575 208.7 233.532 207.587 232.913 207.008C232.294 206.428 231.68 205.776 231.549 205.558C231.417 205.34 230.362 204.264 229.205 203.168C228.048 202.072 226.671 200.717 226.147 200.156C225.622 199.596 224.545 198.714 223.755 198.195C222.963 197.676 222.289 197.079 222.255 196.867C222.221 196.655 221.409 195.984 220.452 195.376C219.494 194.769 218.417 193.961 218.058 193.582C217.7 193.202 215.755 191.83 213.736 190.532C211.718 189.234 208.977 187.467 207.645 186.605C204.502 184.57 181.326 173.999 177.219 172.727C175.484 172.189 171.432 170.84 168.214 169.729C164.997 168.618 161.495 167.501 160.433 167.246C159.371 166.991 156.967 166.191 155.091 165.467C151.808 164.2 151.735 164.151 153.133 164.165C153.932 164.173 154.924 164.149 155.336 164.113C155.749 164.076 156.48 164.099 156.96 164.164C157.441 164.229 158.335 164.254 158.948 164.219C159.56 164.184 160.778 164.351 161.656 164.589C162.533 164.828 163.301 164.86 163.364 164.663C163.426 164.465 163.8 164.448 164.196 164.624C164.591 164.801 166.004 165.132 167.335 165.36C171.589 166.089 174.507 166.686 176.75 167.286C177.952 167.607 180.309 168.194 181.988 168.588C183.668 168.984 186.677 169.842 188.675 170.497C192.763 171.836 212.12 180.241 212.315 180.761ZM176.725 176.673C176.78 176.819 179.078 178.289 181.832 179.94C184.586 181.591 187.101 183.22 187.421 183.56C187.74 183.9 188.75 184.663 189.665 185.255C191.303 186.315 192.217 187.089 196.135 190.737C202.172 196.356 202.691 199.872 196.774 195.062C195.737 194.22 194.169 192.951 193.29 192.243C192.411 191.536 191.511 190.75 191.29 190.497C190.824 189.963 186.689 186.848 184.076 185.064C183.087 184.387 181.686 183.369 180.964 182.801C179.055 181.299 172.983 177.47 168.349 174.847C166.138 173.595 163.292 171.961 162.023 171.217L159.717 169.863L161.577 170.321C163.636 170.827 176.567 176.25 176.725 176.673ZM132.652 166.626C132.215 166.78 131.638 166.819 131.371 166.713C131.104 166.606 130.207 166.59 129.378 166.676C128.548 166.763 127.645 166.737 127.37 166.62C127.094 166.502 126.511 166.532 126.073 166.685C125.636 166.839 125.06 166.873 124.795 166.761C124.53 166.648 123.809 166.628 123.193 166.715C122.578 166.803 121.886 166.672 121.656 166.424C121.426 166.177 121.3 166.14 121.375 166.341C121.45 166.542 120.801 166.765 119.932 166.835C115.444 167.2 108.879 168.022 108.608 168.253C108.438 168.398 107.927 168.377 107.473 168.206C107.019 168.034 106.673 168.054 106.704 168.249C106.735 168.445 106.537 168.502 106.264 168.377C105.991 168.252 105.727 168.279 105.677 168.437C105.627 168.595 104.754 168.891 103.738 169.095C101.575 169.53 101.35 169.583 97.1618 170.646C95.4074 171.09 93.6356 171.611 93.2244 171.803C92.8133 171.995 92.3896 172.112 92.2835 172.063C92.1775 172.015 91.5736 172.182 90.941 172.435C90.3088 172.689 89.3863 173.006 88.891 173.141C86.9098 173.681 81.7065 175.647 81.5025 175.933C81.3827 176.1 81.1137 176.158 80.9045 176.063C80.6952 175.967 80.2098 176.09 79.8256 176.336C79.4418 176.582 78.616 176.945 77.9909 177.141C76.4261 177.632 75.0769 178.185 73.3183 179.058C72.4967 179.466 71.7555 179.767 71.6711 179.729C71.5867 179.69 71.1608 179.841 70.7251 180.063C70.289 180.285 69.1229 180.788 68.1334 181.179C66.263 181.918 63.423 183.148 62.226 183.736C61.845 183.924 60.8031 184.329 59.9105 184.637C59.0181 184.944 57.8993 185.388 57.4241 185.623C55.6527 186.5 51.6472 187.606 50.7226 187.475C50.1373 187.392 49.6393 187.072 49.4411 186.65C49.0841 185.891 49.3192 184.633 49.7053 185.238C49.8417 185.453 49.9451 185.33 49.9443 184.954C49.9408 183.838 57.5912 178.639 58.0882 179.419C58.199 179.593 58.3646 179.426 58.4565 179.049C58.5604 178.622 58.8258 178.478 59.1604 178.669C59.4561 178.837 59.6638 178.763 59.6223 178.504C59.5308 177.933 63.982 175.692 64.2802 176.159C64.3963 176.341 64.4901 176.199 64.4891 175.843C64.4879 175.462 64.8034 175.146 65.2534 175.077C65.6748 175.012 66.2797 174.825 66.5971 174.662C66.9146 174.5 68.1049 174.017 69.2419 173.591C70.3791 173.164 71.5114 172.694 71.7583 172.547C72.0053 172.4 73.4095 171.849 74.8788 171.322C76.348 170.796 77.6526 170.3 77.7777 170.221C78.4265 169.812 84.3567 167.999 84.6322 168.125C84.8092 168.206 85.0016 168.121 85.0601 167.935C85.1185 167.75 85.664 167.581 86.272 167.56C86.8801 167.539 87.4273 167.364 87.4879 167.173C87.5483 166.981 87.8846 166.826 88.2346 166.828C88.5846 166.83 89.7309 166.571 90.7815 166.253C91.8322 165.935 92.8261 165.737 92.9904 165.812C93.1551 165.887 93.5698 165.797 93.9124 165.612C95.0708 164.986 108.203 163.127 108.974 163.48C109.193 163.58 109.426 163.49 109.493 163.279C109.559 163.068 109.87 163.013 110.183 163.157C110.497 163.3 111.424 163.329 112.244 163.223C113.064 163.116 113.863 163.086 114.018 163.157C114.173 163.228 114.828 163.253 115.473 163.213C117.008 163.115 119.88 163.266 121.622 163.534C122.387 163.653 123.349 163.721 123.761 163.686C124.64 163.612 130.988 165.222 132.445 165.888C133.396 166.323 133.406 166.361 132.652 166.626ZM212.806 205.469C212.702 205.797 212.749 206.126 212.911 206.2C213.072 206.274 213.135 206.896 213.05 207.582C212.874 209.015 213.418 209.939 214.814 210.577C216.077 211.155 215.894 211.632 214.175 212.245C212.958 212.679 212.675 213.007 211.847 214.938L210.905 217.138L209.946 215.129C209.016 213.18 208.935 213.108 207.259 212.734C206.309 212.522 205.557 212.265 205.589 212.165C205.621 212.064 206.168 211.459 206.805 210.819C207.959 209.66 207.963 209.65 207.808 207.931C207.722 206.982 207.554 205.998 207.433 205.746C207.313 205.492 207.866 205.709 208.661 206.227C209.933 207.054 210.217 207.095 211.003 206.562C211.496 206.229 211.968 205.753 212.053 205.505C212.288 204.82 213.022 204.784 212.806 205.469ZM142.194 173.991C143.019 174.872 143.812 175.903 143.957 176.283C144.102 176.662 144.426 177.066 144.676 177.18C144.926 177.295 145.08 177.549 145.018 177.746C144.956 177.942 145.159 178.345 145.47 178.641C145.78 178.937 145.879 179.322 145.69 179.497C145.481 179.69 145.53 179.771 145.817 179.705C146.229 179.609 146.918 180.792 148.727 184.699C148.929 185.136 148.955 185.623 148.784 185.78C148.614 185.938 148.65 186.025 148.865 185.976C149.287 185.878 152.113 193.439 153.174 197.504C153.532 198.873 153.881 200.118 153.951 200.27C154.193 200.798 156.805 212.757 156.927 213.895C156.995 214.524 157.174 215.371 157.326 215.778C157.478 216.185 157.447 216.727 157.257 216.983C157.066 217.24 157.061 217.414 157.243 217.372C157.427 217.329 157.655 218.016 157.752 218.896C157.849 219.778 158.024 220.542 158.143 220.597C158.261 220.651 158.365 221.241 158.374 221.908C158.383 222.575 158.525 223.971 158.689 225.01C158.853 226.05 159.088 228.031 159.21 229.413C159.332 230.794 159.477 232.044 159.534 232.191C159.59 232.337 159.698 233.373 159.775 234.492C160.001 237.797 160.475 245.479 160.512 246.445C160.531 246.936 160.584 248.249 160.629 249.363C160.675 250.477 160.662 251.903 160.601 252.531C160.539 253.16 160.586 253.828 160.706 254.014C160.825 254.202 160.839 254.62 160.736 254.944C160.634 255.269 160.58 256.17 160.618 256.946C160.77 260.117 160.341 264.45 159.569 267.533C158.758 270.773 158.742 270.803 157.774 270.878C156.997 270.938 156.725 270.801 156.446 270.209C156.082 269.436 155.557 262.6 155.727 260.856C155.781 260.309 155.715 259.81 155.58 259.749C155.446 259.688 155.407 259.127 155.494 258.504C155.634 257.496 155.512 253.912 155.149 248.327C155.083 247.306 155.091 246.274 155.167 246.034C155.242 245.793 155.161 245.531 154.986 245.451C154.811 245.371 154.746 245.057 154.842 244.754C154.937 244.451 154.891 242.259 154.739 239.883C154.587 237.507 154.517 235.392 154.583 235.183C154.649 234.974 154.56 234.737 154.385 234.657C154.21 234.577 154.134 234.296 154.218 234.032C154.301 233.769 154.242 232.411 154.086 231.014C153.931 229.617 153.699 227.144 153.57 225.518C153.442 223.892 153.271 222.433 153.19 222.276C153.11 222.119 152.944 220.81 152.821 219.368C152.699 217.925 152.468 216.686 152.309 216.613C152.15 216.541 152.213 216.155 152.449 215.757C152.684 215.359 152.766 215.093 152.629 215.167C152.385 215.299 151.696 213.158 151.838 212.708C151.878 212.582 151.681 211.39 151.399 210.061C151.117 208.731 150.908 207.575 150.935 207.491C151.018 207.226 149.57 199.399 149.263 198.455C149.101 197.959 149.004 197.444 149.046 197.31C149.127 197.054 146.925 188.709 145.982 185.696C144.924 182.318 142.438 176.358 140.849 173.388C139.981 171.767 140.208 171.869 142.194 173.991ZM127.451 171.405C125.4 171.718 122.489 172.42 121.876 172.75C121.557 172.921 121.173 173.005 121.023 172.936C120.873 172.867 120.492 172.94 120.178 173.097C119.863 173.255 118.798 173.604 117.811 173.873C114.169 174.865 109.126 176.652 106.735 177.797C106.349 177.982 105.01 178.548 103.76 179.055C102.51 179.562 98.772 181.403 95.454 183.146C89.8315 186.098 87.872 186.735 88.268 185.48C88.4327 184.959 90.6401 182.96 91.6846 182.387C92.0011 182.213 92.3167 181.892 92.3855 181.675C92.4545 181.456 92.7007 181.482 92.933 181.732C93.1853 182.003 93.3238 181.989 93.2768 181.697C93.1696 181.029 99.3516 177.811 99.6982 178.354C99.8627 178.613 99.9376 178.57 99.8861 178.249C99.7924 177.666 100.952 177.039 104.467 175.772C105.72 175.321 107.023 174.829 107.364 174.679C109.14 173.898 110.018 173.6 110.241 173.702C110.377 173.764 110.749 173.675 111.068 173.504C111.387 173.333 112.521 173.023 113.589 172.816C114.657 172.608 115.636 172.364 115.765 172.273C115.894 172.183 116.25 172.094 116.556 172.076C116.863 172.058 117.823 171.873 118.691 171.664C120.842 171.148 122 171.115 122.413 171.559C122.619 171.781 122.76 171.696 122.759 171.351C122.758 170.988 123.121 170.821 123.725 170.907C124.257 170.982 125.404 170.99 126.273 170.922C128.217 170.772 129.132 171.147 127.451 171.405ZM138.556 233.335C139.05 234.946 139.176 235.077 140.687 235.533C141.57 235.799 142.257 236.127 142.214 236.263C142.172 236.398 141.667 237 141.093 237.6C140.258 238.473 140.043 238.946 140.02 239.958C140.004 240.654 140.09 241.379 140.21 241.568C140.331 241.758 140.358 242.141 140.271 242.419C140.144 242.819 139.829 242.705 138.757 241.872C137.426 240.838 137.376 240.836 135.943 241.734C134.054 242.918 133.625 242.687 134.218 240.809C134.848 238.814 134.813 237.977 134.085 237.644C133.754 237.493 133.531 237.215 133.59 237.027C133.649 236.839 133.341 236.386 132.906 236.019L132.114 235.353L133.569 235.195C135.807 234.952 136.146 234.703 136.722 232.88C137.365 230.843 137.827 230.957 138.556 233.335Z" fill="#DA1E40"/>
<path fill-rule="evenodd" clip-rule="evenodd" d="M157.718 48.4947C159.749 50.5798 162.062 54.4155 162.178 55.8876C162.204 56.2253 162.356 56.58 162.514 56.6761C162.673 56.7722 163.457 59.2207 164.257 62.117C165.214 65.5838 165.572 67.5332 165.307 67.8241C165.085 68.0665 165.044 68.2504 165.217 68.2324C165.686 68.1831 165.879 68.825 166.124 71.2517C166.246 72.4612 166.381 73.5749 166.422 73.7264C166.51 74.0423 166.593 75.7265 166.621 77.746C166.631 78.5092 166.677 79.2597 166.723 79.4134C166.881 79.9468 166.701 89.0036 166.458 92.7867C166.426 93.2724 166.351 94.5687 166.29 95.6672C165.901 102.691 164.181 112.987 162.01 121.287C159.964 129.109 159.43 130.645 156.082 138.337C152.873 145.707 152.465 146.484 150.784 148.429L148.963 150.536L150.692 145.85C152.752 140.268 155.365 132.215 155.418 131.282C155.439 130.916 155.838 128.991 156.305 127.003C158.119 119.276 159.537 111.188 159.722 107.512C159.759 106.778 159.919 105.587 160.078 104.866C160.236 104.145 160.279 103.384 160.172 103.176C160.066 102.968 160.091 102.516 160.227 102.172C160.364 101.828 160.487 100.728 160.501 99.7268C160.514 98.7257 160.576 97.7715 160.639 97.6058C161.089 96.4071 161.081 80.0251 160.628 75.2595C160.513 74.0546 160.392 72.7178 160.357 72.2884C160.197 70.3043 159.936 68.5349 159.586 67.058C159.376 66.1736 159.361 65.2765 159.553 65.0643C159.744 64.852 159.738 64.6956 159.538 64.7162C159.338 64.737 158.621 62.6598 157.945 60.0998C157.269 57.5401 156.339 54.5761 155.878 53.5137C154.51 50.367 154.223 49.0982 154.647 48.0849C155.211 46.7369 156.127 46.8592 157.718 48.4947ZM235.244 107.058C235.209 107.475 235.045 108.141 234.879 108.537C234.677 109.02 234.871 109.683 235.469 110.546C236.105 111.465 236.19 111.783 235.767 111.655C235.441 111.556 235.111 111.629 235.033 111.815C234.955 112.001 234.686 112.029 234.435 111.877C234.105 111.677 233.808 112.007 233.366 113.064C232.675 114.714 232.355 114.721 231.982 113.096C231.77 112.171 231.483 111.876 230.333 111.401C229.036 110.865 228.982 110.791 229.547 110.313C230.422 109.573 230.953 108.105 230.691 107.15C230.35 105.909 230.524 105.836 231.871 106.653C232.827 107.232 233.35 107.276 234.205 106.849C235.179 106.362 235.3 106.386 235.244 107.058ZM232.006 124.811C231.978 125.148 231.686 125.582 231.358 125.774C230.724 126.145 219.51 126.226 218.913 125.863C218.719 125.746 218.503 125.788 218.432 125.957C218.361 126.126 217.665 126.15 216.884 126.01C216.103 125.869 215.407 125.893 215.336 126.062C215.265 126.231 215.079 126.292 214.923 126.197C214.518 125.951 213.117 125.889 211.715 126.055C211.052 126.134 209.428 126.22 208.105 126.248C206.782 126.275 205.645 126.429 205.578 126.589C205.511 126.749 205.316 126.795 205.146 126.691C204.788 126.474 201.588 126.843 201.086 127.16C200.901 127.276 200.549 127.105 200.303 126.78C200.057 126.454 199.905 126.367 199.965 126.585C200.107 127.102 198.63 127.787 198.086 127.457C197.856 127.318 197.485 127.403 197.262 127.646C197.039 127.889 196.747 128.022 196.613 127.941C196.216 127.7 193.071 128.216 192.933 128.544C192.864 128.709 192.668 128.76 192.499 128.657C192.25 128.507 188.676 129.275 185.312 130.201C179.13 131.904 171.295 134.57 167.192 136.367C165.699 137.021 164.327 137.148 165.552 136.519C166.539 136.012 168.74 134.393 168.872 134.077C168.946 133.901 169.131 133.765 169.285 133.774C169.439 133.783 170.28 133.311 171.155 132.725C172.03 132.139 173.299 131.361 173.977 130.995C176.093 129.855 188.832 124.899 191.065 124.348C192.235 124.059 193.441 123.679 193.745 123.504C194.049 123.329 194.408 123.403 194.544 123.668C194.68 123.934 194.817 123.977 194.848 123.764C194.916 123.31 201.03 121.902 201.555 122.22C201.751 122.339 202.009 122.34 202.128 122.224C202.38 121.975 205.353 121.312 205.585 121.452C205.671 121.505 206.53 121.429 207.493 121.284C210.77 120.79 219.233 120.667 221.234 121.085C221.717 121.185 222.301 121.225 222.532 121.173C222.764 121.121 223.483 121.249 224.13 121.457C224.778 121.665 225.495 121.797 225.724 121.751C226.295 121.635 229.871 122.873 231.076 123.604C231.637 123.944 232.035 124.461 232.006 124.811ZM103.798 79.1143C102.701 80.8955 102.678 81.0121 103.111 82.5297C103.357 83.3942 103.53 84.4393 103.496 84.853C103.442 85.5059 103.221 85.4759 101.817 84.6243C100.637 83.9088 99.9882 83.7422 99.4162 84.0078C98.9852 84.208 98.58 84.4972 98.5156 84.6509C98.4513 84.8046 97.9496 85.183 97.4008 85.4917C96.826 85.8148 96.4922 85.8377 96.613 85.5453C96.7288 85.2659 96.9393 84.3338 97.0809 83.4732C97.3285 81.969 97.2873 81.8779 96.0014 81.0983C94.4554 80.1609 94.2674 79.5335 95.4009 79.0959C97.4173 78.3169 97.9073 77.735 98.1169 75.8696C98.2252 74.909 98.4103 74.011 98.5284 73.8739C98.6468 73.7369 99.2054 74.3091 99.7699 75.1451C100.992 76.9546 101.513 77.3187 102.445 77.0127C102.83 76.8869 103.546 76.8932 104.038 77.0268L104.932 77.2703L103.798 79.1143ZM99.6946 97.802C104.042 100.702 115.914 110.804 117.136 112.643C117.393 113.031 118.037 113.749 118.566 114.24C119.095 114.731 119.613 115.355 119.716 115.628C119.82 115.901 120.38 116.615 120.959 117.216C122.297 118.599 124.482 121.383 124.558 121.799C124.59 121.974 124.88 122.423 125.201 122.799C125.99 123.716 128.417 127.474 129.766 129.864C131.899 133.642 132.24 134.436 131.893 134.82C131.698 135.037 131.728 135.187 131.963 135.162C132.683 135.087 134.081 138.594 136.313 146.078C136.993 148.36 137.669 152.176 137.359 151.988C137.125 151.846 135.594 148.991 135.366 148.27C135.264 147.948 135.009 147.327 134.8 146.889C134.59 146.451 134.085 145.391 133.678 144.532C132.114 141.236 129.233 136.056 128.597 135.394C128.231 135.014 127.993 134.556 128.068 134.377C128.143 134.197 128.053 133.959 127.868 133.847C127.684 133.735 127.023 132.818 126.401 131.81C125.778 130.802 125.007 129.817 124.686 129.623C124.365 129.428 124.16 129.131 124.23 128.963C124.3 128.795 123.745 127.968 122.997 127.124C118.221 121.746 117.028 120.439 115.345 118.746C114.311 117.706 112.572 116.119 111.48 115.218C110.388 114.318 108.744 112.914 107.826 112.099C104.258 108.929 96.801 103.868 82.692 95.0402C66.8234 85.1117 66.9913 85.2447 67.8203 83.264C68.1226 82.5417 68.5453 82.2883 69.4762 82.27C70.8733 82.2432 75.9814 84.1388 80.7856 86.4677C83.703 87.882 94.7426 94.499 99.6946 97.802Z" fill="#DA1E40"/>
</svg>
